<mxfile host="app.diagrams.net" modified="2024-04-26T08:47:50.313Z" agent="Mozilla/5.0 (X11; Linux x86_64) AppleWebKit/537.36 (KHTML, like Gecko) Chrome/124.0.0.0 Safari/537.36" etag="jSPd5igMjz0nU14ftxmv" version="23.1.0" type="device">
  <diagram name="Page-1" id="bKToCkzvLFQIwhxE9KTg">
    <mxGraphModel dx="1382" dy="767" grid="1" gridSize="10" guides="1" tooltips="1" connect="1" arrows="1" fold="1" page="1" pageScale="1" pageWidth="850" pageHeight="1100" math="0" shadow="0">
      <root>
        <mxCell id="0" />
        <mxCell id="1" parent="0" />
        <mxCell id="5Qr4pliIjPD3RpklXEzN-1" value="User" style="rounded=1;whiteSpace=wrap;html=1;" vertex="1" parent="1">
          <mxGeometry x="320" y="80" width="120" height="60" as="geometry" />
        </mxCell>
        <mxCell id="5Qr4pliIjPD3RpklXEzN-2" value="Address" style="rounded=1;whiteSpace=wrap;html=1;" vertex="1" parent="1">
          <mxGeometry x="580" y="150" width="120" height="60" as="geometry" />
        </mxCell>
        <mxCell id="5Qr4pliIjPD3RpklXEzN-3" value="Store" style="rounded=1;whiteSpace=wrap;html=1;" vertex="1" parent="1">
          <mxGeometry x="320" y="260" width="120" height="60" as="geometry" />
        </mxCell>
        <mxCell id="5Qr4pliIjPD3RpklXEzN-4" value="Product" style="rounded=1;whiteSpace=wrap;html=1;" vertex="1" parent="1">
          <mxGeometry x="100" y="420" width="120" height="60" as="geometry" />
        </mxCell>
        <mxCell id="5Qr4pliIjPD3RpklXEzN-5" value="Category" style="rounded=1;whiteSpace=wrap;html=1;" vertex="1" parent="1">
          <mxGeometry x="320" y="420" width="120" height="60" as="geometry" />
        </mxCell>
        <mxCell id="5Qr4pliIjPD3RpklXEzN-6" value="Image" style="rounded=1;whiteSpace=wrap;html=1;" vertex="1" parent="1">
          <mxGeometry x="100" y="160" width="120" height="60" as="geometry" />
        </mxCell>
        <mxCell id="5Qr4pliIjPD3RpklXEzN-7" value="" style="edgeStyle=entityRelationEdgeStyle;fontSize=12;html=1;endArrow=ERoneToMany;rounded=0;" edge="1" parent="1" source="5Qr4pliIjPD3RpklXEzN-1" target="5Qr4pliIjPD3RpklXEzN-2">
          <mxGeometry width="100" height="100" relative="1" as="geometry">
            <mxPoint x="370" y="450" as="sourcePoint" />
            <mxPoint x="470" y="350" as="targetPoint" />
          </mxGeometry>
        </mxCell>
        <mxCell id="5Qr4pliIjPD3RpklXEzN-8" value="" style="edgeStyle=entityRelationEdgeStyle;fontSize=12;html=1;endArrow=ERoneToMany;rounded=0;" edge="1" parent="1" source="5Qr4pliIjPD3RpklXEzN-3" target="5Qr4pliIjPD3RpklXEzN-2">
          <mxGeometry width="100" height="100" relative="1" as="geometry">
            <mxPoint x="440" y="160" as="sourcePoint" />
            <mxPoint x="610" y="180" as="targetPoint" />
          </mxGeometry>
        </mxCell>
        <mxCell id="5Qr4pliIjPD3RpklXEzN-9" value="" style="edgeStyle=entityRelationEdgeStyle;fontSize=12;html=1;endArrow=ERoneToMany;rounded=0;" edge="1" parent="1" source="5Qr4pliIjPD3RpklXEzN-3" target="5Qr4pliIjPD3RpklXEzN-5">
          <mxGeometry width="100" height="100" relative="1" as="geometry">
            <mxPoint x="450" y="300" as="sourcePoint" />
            <mxPoint x="590" y="190" as="targetPoint" />
          </mxGeometry>
        </mxCell>
        <mxCell id="5Qr4pliIjPD3RpklXEzN-10" value="" style="edgeStyle=entityRelationEdgeStyle;fontSize=12;html=1;endArrow=ERoneToMany;rounded=0;" edge="1" parent="1" source="5Qr4pliIjPD3RpklXEzN-5" target="5Qr4pliIjPD3RpklXEzN-4">
          <mxGeometry width="100" height="100" relative="1" as="geometry">
            <mxPoint x="450" y="300" as="sourcePoint" />
            <mxPoint x="450" y="460" as="targetPoint" />
          </mxGeometry>
        </mxCell>
      </root>
    </mxGraphModel>
  </diagram>
</mxfile>
